<?xml version="1.0" encoding="UTF-8" standalone="no"?>
<!-- Created with Inkscape (http://www.inkscape.org/) -->

<svg
   version="1.1"
   id="svg1"
   width="726"
   height="860"
   viewBox="0 0 726 860"
   xmlns="http://www.w3.org/2000/svg"
   xmlns:svg="http://www.w3.org/2000/svg">
  <defs
     id="defs1" />
  <g
     id="g1">
    <path
       style="fill:#ecdfcc"
       d="M 336.59676,733.82012 C 317.58251,727.94552 307.40253,724.15744 296,718.71361 c -11.10964,-5.30399 -19.55124,-13.68833 -26.41175,-26.2326 -2.70146,-4.93956 -7.08896,-12.67164 -9.75,-17.18241 C 257.17721,670.78783 255,666.94502 255,666.75902 c 0,-0.186 3.69595,0.0923 8.21322,0.61838 12.01082,1.39887 18.25482,-0.0418 49.65335,-11.45684 30.89995,-11.23373 34.57496,-12.96404 37.84473,-17.81844 2.05577,-3.05207 2.31345,-4.73136 2.53191,-16.5 0.41354,-22.27753 0.29382,-23.66439 -2.51973,-29.18774 -3.51816,-6.90658 -9.65527,-12.68597 -21.67797,-20.41438 -22.55275,-14.49733 -26.70777,-17.34851 -30.38024,-20.84697 -7.39746,-7.04694 -8.88368,-12.97092 -6.68674,-26.65303 0.52988,-3.3 1.63595,-11.625 2.45795,-18.5 0.82199,-6.875 2.86175,-23.075 4.53281,-36 1.67106,-12.925 3.50503,-28 4.0755,-33.5 0.57047,-5.5 1.66193,-14.275 2.42546,-19.5 2.86971,-19.63792 2.99369,-18.12826 -1.88181,-22.9132 l -4.32753,-4.24715 -1.76939,13.83017 c -1.95801,15.30456 -1.95212,15.28739 -7.96048,23.22162 -2.33595,3.08471 -8.76072,11.68356 -14.27726,19.10856 -11.50893,15.49049 -21.11951,27.50279 -33.28862,41.60757 -18.77433,21.76065 -34.43581,42.6488 -40.43054,53.92334 l -2.42648,4.56359 -7.0563,-10.51724 c -4.2773,-6.3752 -8.72921,-11.73577 -11.30407,-13.61127 -4.2176,-3.07206 -20.55072,-12.78282 -51.24777,-30.46906 -13.97595,-8.0523 -31.053803,-18.30696 -53.393242,-32.06078 -12.404795,-7.63731 -11.530281,-5.82868 -12.135973,-25.09898 -0.566947,-18.03762 0.522236,-53.02591 1.794281,-57.63845 0.767394,-2.78264 0.828574,-2.73937 9.190381,6.5 12.148693,13.42367 18.08224,17.71386 28.039823,20.27386 4.27791,1.09982 4.62478,1.46608 7.17371,7.57486 3.05848,7.32997 1.60633,6.00191 29.33102,26.8246 26.48113,19.88871 27.97051,20.88856 40.58485,27.24525 17.62281,8.8806 26.70283,19.84095 30.5499,36.87626 0.87024,3.85355 2.001,7.00645 2.5128,7.00645 C 214.78746,509 221,494.72458 221,490.95635 221,487.04283 218.56433,478.98383 216.17752,475 209.57939,463.98706 206.50655,461.5242 197.98899,460.422 194.97005,460.03134 190.025,458.62628 187,457.29964 l -5.5,-2.41208 2.5,-1.88979 c 1.62405,-1.22764 2.14962,-2.21502 1.5,-2.81801 -2.24468,-2.08356 -52.26114,-39.07038 -55.5,-41.04185 -1.925,-1.17174 -4.22722,-2.13212 -5.11605,-2.13417 -1.10579,-0.003 -2.50458,-2.45079 -4.43008,-7.75374 -1.54771,-4.2625 -3.63055,-9.6094 -4.62854,-11.88201 l -1.81453,-4.132 -7.7554,-0.68017 c -4.96169,-0.43516 -9.556536,-1.54522 -12.7554,-3.08156 -4.698981,-2.25681 -24.612117,-17.63932 -25.329636,-19.56664 -0.537126,-1.44277 3.854169,-39.82199 5.403188,-47.223 C 74.358099,308.93617 75,305.70618 75,305.50688 c 0,-1.04329 12.304982,1.06493 17.5,2.99829 8.21187,3.0561 32.42597,13.90269 53.5,23.96506 l 17.5,8.35585 49.89161,0.63271 c 37.66166,0.47761 50.65985,0.9537 53.02564,1.94219 3.81936,1.59583 10.28111,9.00509 22.61201,25.92771 10.50107,14.41141 12.77517,16.0842 25.97074,19.10362 15.08849,3.45257 19.61785,4.45127 25.34452,5.5883 3.21449,0.63824 7.37699,1.80074 9.25,2.58333 L 353,398.02684 v 66.42756 c 0,36.53516 -0.37486,66.65924 -0.83303,66.94241 -0.45817,0.28316 -6.42067,-0.8099 -13.25,-2.42903 -18.73844,-4.44259 -21.7756,-4.01427 -30.91675,4.36008 -3.85029,3.52732 -4.09013,4.03767 -3.0547,6.5 0.61802,1.46968 1.96973,3.78036 3.00382,5.13485 l 1.88015,2.4627 1.74396,-3.65712 c 3.36456,-7.05554 8.82896,-7.30024 27.03075,-1.21042 10.26102,3.43306 11.55517,3.62963 23.8958,3.62963 12.34063,0 13.63478,-0.19657 23.8958,-3.62963 18.134,-6.06713 24.35405,-5.79415 27.27516,1.19705 1.68214,4.02593 3.05353,3.40006 5.77529,-2.63573 l 1.75519,-3.89232 -4.68553,-4.36343 c -8.51125,-7.92617 -12.24051,-8.32065 -32.43449,-3.43093 -5.70107,1.38044 -10.75165,2.2713 -11.2235,1.97968 C 372.38606,531.12057 372,500.98956 372,464.4544 v -66.42756 l 3.40548,-1.4229 c 1.87301,-0.78259 6.03551,-1.94509 9.25,-2.58333 3.21449,-0.63824 8.54452,-1.77057 11.84452,-2.51629 28.34173,-6.40452 27.78211,-6.10382 38.51166,-20.69349 14.57165,-19.81402 20.68359,-26.65237 24.80816,-27.75662 2.0241,-0.54191 25.50518,-1.26192 52.18018,-1.60003 31.36998,-0.39762 49.55959,-1.00452 51.5,-1.71831 1.65,-0.60696 9.59065,-4.35064 17.64589,-8.31929 8.05524,-3.96864 15.70524,-7.54723 17,-7.95241 1.29476,-0.40518 6.98295,-2.90922 12.64041,-5.56454 16.62713,-7.80389 27.27672,-11.66587 33.44991,-12.13032 4.61022,-0.34685 5.83167,-0.1212 6.22251,1.14956 0.94987,3.08834 3.44343,20.81639 5.20079,36.97516 l 1.78294,16.39403 -3.41659,2.60597 c -1.87912,1.43328 -5.8969,4.76379 -8.9284,7.40112 -9.23875,8.03748 -15.06062,10.81557 -25.33027,12.08715 l -9.02687,1.1177 -3.87016,9.94875 C 604.74157,398.92057 603,403.99719 603,404.73014 c 0,0.73295 -0.7875,1.56581 -1.75,1.85082 -4.44331,1.3157 -11.54359,6.09723 -35.25,23.73837 -14.025,10.43671 -25.95,19.38372 -26.5,19.88224 -0.64423,0.58394 -0.11589,1.57441 1.48506,2.78403 1.36678,1.03269 2.26678,2.0577 2,2.27782 -1.66663,1.37506 -12.34745,4.72144 -16.88098,5.28894 -4.38035,0.54833 -6.18897,1.40646 -9.60956,4.55945 -7.18968,6.62722 -13.461,21.18376 -12.11819,28.12785 0.75859,3.92291 6.58272,15.76034 7.75423,15.76034 0.45724,0 1.09088,-1.2375 1.4081,-2.75 1.92428,-9.17482 2.85914,-12.09506 5.62785,-17.57986 4.68993,-9.29069 13.35185,-17.21995 25.33134,-23.18872 11.71341,-5.8362 17.42036,-9.61431 39.00215,-25.82023 28.63421,-21.50162 28.78347,-21.63749 31.56399,-28.73252 2.46861,-6.29914 2.48663,-6.31662 7.93473,-7.69692 8.39776,-2.12762 17.76124,-8.99075 27.13949,-19.89241 7.64772,-8.89002 8.29262,-9.40699 9.07992,-7.27872 1.56349,4.22653 3.1112,43.92081 2.31724,59.43073 l -0.76742,14.99135 -3.24408,3.00865 c -3.33533,3.09327 -32.60036,21.05564 -63.52387,38.98985 -34.63835,20.08865 -47.55632,27.77457 -50.86191,30.26175 -1.84905,1.39125 -6.27018,6.96824 -9.82473,12.3933 -3.55455,5.42506 -6.80695,9.86375 -7.22757,9.86375 -0.42062,0 -1.31237,-1.20188 -1.98167,-2.67084 -3.85952,-8.47072 -21.98467,-32.72169 -40.51527,-54.20837 -12.78262,-14.82176 -26.73418,-32.3707 -38.65393,-48.62079 -6.05153,-8.25 -11.90204,-16.13926 -13.00112,-17.5317 -1.17242,-1.48535 -2.37311,-5.20505 -2.90514,-9 -0.49874,-3.55756 -1.44459,-10.21524 -2.10189,-14.79484 l -1.19508,-8.32655 -4.31014,4.23008 c -3.37426,3.31159 -4.2185,4.79386 -3.88809,6.82655 0.44617,2.74488 3.65377,28.4397 5.44234,43.59646 0.58412,4.95 2.88365,22.95 5.11005,40 2.22641,17.05 4.44814,34.15 4.93717,38 1.73437,13.65408 1.30785,18.74318 -1.94752,23.23708 -4.88429,6.74257 -10.88967,11.21359 -35.45813,26.39869 -9.18464,5.67678 -17.12734,13.08187 -20.68555,19.28547 l -2.91305,5.07876 -0.009,18.28212 c -0.0108,20.97701 0.64114,23.63469 6.79656,27.70816 3.73479,2.47156 36.90702,15.12413 56.69406,21.62428 10.39886,3.41608 19.38586,4.40971 28.25,3.12341 3.4375,-0.49882 6.25,-0.74609 6.25,-0.54949 0,0.19661 -2.11028,4.05963 -4.68951,8.58449 -17.64866,30.96185 -21.42788,35.85359 -32.06805,41.5082 -10.19249,5.41669 -32.88281,13.76939 -54.49244,20.05961 L 372,738.8056 v -25.74309 c 0,-14.1587 -0.29425,-33.20397 -0.65389,-42.32283 l -0.65389,-16.57975 -4.16614,-1.04905 c -4.14118,-1.04276 -10.82447,-0.0551 -11.94994,1.76593 -0.27288,0.44152 -0.58107,18.52961 -0.68488,40.19576 -0.10381,21.66615 -0.45931,40.3533 -0.79,41.52699 -0.59215,2.10167 -0.84213,2.05957 -16.5045,-2.77944 z M 214.55249,402.08493 c -0.31105,-0.50329 -3.82511,-2.14678 -7.80902,-3.6522 -15.52113,-5.86507 -42.29805,-18.82682 -47.21265,-22.85397 -3.31265,-2.71446 -5.13377,-5.60059 -8.83259,-13.99795 -2.56275,-5.81815 -4.93015,-11.65668 -5.26091,-12.97452 C 144.74873,345.86271 132,334.14857 132,336.25944 c 0,2.53143 7.89036,33.15308 9.83599,38.17245 1.05145,2.71254 2.88246,5.94049 4.06892,7.17321 2.8475,2.95854 19.89642,11.59422 28.09509,14.23083 14.24321,4.58046 42.18209,8.88575 40.55249,6.249 z m 65.78561,-7.66516 c -3.04076,-10.79708 -7.21401,-19.67278 -12.84899,-27.32736 -3.72503,-5.06009 -5.58644,-6.54504 -12.17927,-9.71607 l -7.78222,-3.7431 -35.26381,-0.44838 C 188.36864,352.88103 177,353.06968 177,353.77004 c 0,2.15738 13.98545,18.95469 19.9847,24.00275 7.15912,6.02403 17.55973,11.32008 27.0153,13.75636 5.47108,1.40966 9.23399,1.56232 23.77143,0.96442 l 17.27143,-0.71034 5.41951,2.74203 c 2.98074,1.50811 6.65528,4.03188 8.16566,5.60838 1.51039,1.5765 3.05673,2.86636 3.43633,2.86636 0.37959,0 -0.39722,-3.86111 -1.72626,-8.58023 z m 175.37111,-0.52105 c 4.12294,-1.99588 5.2996,-2.07167 21.61154,-1.39211 14.39688,0.59978 18.32071,0.44744 23.71522,-0.92073 9.05055,-2.29542 19.44724,-7.45075 26.2428,-13.0128 5.1575,-4.22134 7.91056,-7.26702 18.71282,-20.70178 1.60472,-1.99579 2.63809,-3.90829 2.29637,-4.25 -0.87773,-0.87774 -51.84182,-0.68137 -63.29754,0.24388 C 467.5041,355.27752 459.37894,361.16403 450.98691,378.5 447.16758,386.38984 443,398.98611 443,402.63998 c 0,0.28372 1.87849,-1.09205 4.17443,-3.05729 2.29594,-1.96524 6.13659,-4.52302 8.53478,-5.68397 z M 536.5,399.4949 c 11.17732,-2.42863 19.34024,-4.95076 26.19678,-8.09414 7.44708,-3.4141 17.39563,-9.70491 18.44316,-11.66224 3.21693,-6.01089 12.76142,-42.17049 11.47156,-43.46036 -0.8992,-0.89919 -10.59384,8.17236 -11.99263,11.22184 -0.75686,1.65 -3.52562,7.86465 -6.15281,13.81033 -5.56589,12.59635 -7.91802,14.94652 -21.96606,21.94773 -9.96081,4.96422 -29.38999,13.52261 -36.73966,16.1835 -2.60681,0.94378 -5.03808,2.19882 -5.40282,2.78898 -0.98204,1.58897 12.94799,0.13129 26.14248,-2.73564 z m -277,256.74906 c -6.05029,-0.51638 -15.04736,-2.47565 -17.72373,-3.85965 C 229.40447,645.9866 222.16718,632.0108 214.13153,599 c -9.41566,-38.67989 -8.19072,-48.55136 8.65839,-69.77615 3.80895,-4.79812 13.46735,-17.49885 21.46313,-28.22385 7.99577,-10.725 17.52791,-23.325 21.18252,-28 3.65462,-4.675 7.41318,-9.625 8.35237,-11 0.93919,-1.375 4.52112,-6.49574 7.95984,-11.37943 C 285.1865,445.73688 288,441.19413 288,440.52556 c 0,-1.28841 3.77368,-5.1335 4.3537,-4.4361 0.65875,0.79208 -4.32846,39.2807 -8.7996,67.91054 -4.08545,26.16023 -4.91725,35.63131 -3.55622,40.49242 1.84892,6.60372 9.21101,14.23589 21.38202,22.16646 23.81895,15.52032 30.03549,20.01521 34.6219,25.03347 4.2186,4.61582 4.94759,6.05441 5.56269,10.97748 1.1441,9.15714 -0.0771,24.79863 -2.23113,28.57576 -2.53914,4.45253 -8.48443,7.16973 -35.6058,16.27307 -19.29624,6.47682 -24.18102,7.74572 -32,8.31248 -5.07516,0.36787 -10.57756,0.55364 -12.22756,0.41282 z m 193.70875,-0.38553 c -7.66616,-0.64966 -13.26311,-2.12201 -32,-8.41797 -38.19412,-12.83397 -36.99578,-11.76086 -37.40667,-33.49775 -0.22753,-12.03695 0.009,-14.96241 1.42089,-17.56267 3.21832,-5.92776 11.21647,-12.11044 37.77703,-29.2021 16.32316,-10.50393 22.93823,-18.61813 22.97194,-28.17794 0.009,-2.475 -1.33443,-13.725 -2.9848,-25  -5.76499,-39.38537 -8.92471,-62.56088 -9.61187,-70.5 -0.62741,-7.24885 -0.54284,-7.87624 0.90069,-6.68189 0.87621,0.72497 2.53453,3.12426 3.68514,5.33177 2.54493,4.88254 15.46042,22.78827 29.10475,40.35012 5.55505,7.15 11.5053,15.025 13.22277,17.5 1.71747,2.475 9.15322,12.31474 16.52389,21.86609 7.392,9.57899 14.76986,20.2908 16.45343,23.88852 5.14494,10.99447 4.9378,21.94696 -0.90169,47.67635 -6.43416,28.34954 -12.20503,43.27726 -19.91831,51.52338 -6.30538,6.74097 -9.61308,8.57778 -17.94594,9.96567 -10.53624,1.75487 -11.27356,1.78737 -21.29125,0.93842 z M 193.48258,605.72493 C 153.20384,572.65357 122.42344,541.79962 96.489388,508.5 84.349082,492.9117 70.002284,471.95065 70.000561,469.79913 c -0.0011,-1.36355 27.691561,16.73235 53.499439,34.95946 4.4,3.10755 18.7689,12.87064 31.93088,21.69575 l 23.93088,16.04566 4.06912,8 c 6.19336,12.17631 22.98167,63.55882 20.73929,63.47493 -0.36859,-0.0138 -5.17801,-3.72629 -10.68759,-8.25 z M 521,613.03906 c 0,-7.21992 16.09501,-54.65894 22.27205,-65.64547 3.01011,-5.35381 4.39121,-6.53384 17.96164,-15.34668 8.08544,-5.2508 21.80304,-14.46486 30.48356,-20.47568 C 630.84027,484.48049 655,468.44575 655,469.57068 c 0,2.00765 -9.71499,17.17061 -17.89447,27.92932 -7.73905,10.1794 -18.47121,23.84954 -21.19719,27 -24.48206,28.29441 -48.89963,51.99915 -79.90834,77.57554 -15.37565,12.68205 -15,12.40748 -15,10.96352 z m -187,-231.167 c -23.0331,-2.83312 -20.86436,-1.99763 -26,-10.01639 -6.44908,-10.06956 -20.15256,-28.31057 -25.55401,-34.01553 -7.72106,-8.1549 -6.76421,-7.9547 -42.86634,-8.96877 C 221.93584,328.37578 198.95,327.38065 188.5,326.65997 l -19,-1.31032 -17,-7.7579 c -22.42722,-10.23458 -53.04805,-22.76146 -62.871683,-25.7206 -4.329425,-1.30413 -8.09629,-2.94986 -8.370811,-3.65717 -0.57144,-1.47234 3.895226,-14.395 7.432276,-21.50257 1.531779,-3.07805 3.352348,-5.15673 5.096619,-5.81919 6.916169,-2.62671 35.352829,-20.2298 45.537479,-28.18899 l 3.82388,-2.98832 15.67612,3.75385 C 181.04963,238.791 187.478,240.57272 205,246.2672 c 26.7366,8.68914 49.87457,17.39975 53.43739,20.11725 3.32245,2.53416 22.67045,26.6038 26.23329,32.6352 2.41291,4.08474 3.69336,3.73931 2.85297,-0.76965 -1.95505,-10.48953 -17.75833,-33.18727 -28.02435,-40.25048 -2.51569,-1.73084 -8.94468,-5.10077 -14.28664,-7.48874 C 239.8707,248.12281 226.275,241.4859 215,235.76207 203.725,230.03825 192.36265,224.72702 189.75033,223.95934 183.97123,222.26105 178.72394,217.07974 167.00497,201.5 154.91671,185.4293 155.07006,187.30078 165.04842,177.6215 169.69679,173.11246 175.3,167.98434 177.5,166.22569 l 4,-3.19756 -2.4626,-1.92873 c -1.35443,-1.06081 -24.41631,-15.12964 -51.24861,-31.26407 -26.83231,-16.13443 -48.786635,-29.66593 -48.7874,-30.069998 -0.0037,-1.932441 29.26923,3.382318 53.51697,9.716488 22.95373,5.99615 78.71909,25.95591 85.2644,30.51818 l 2.15199,1.5 -2.0447,11 c -2.99226,16.0976 -3.46904,27.68686 -1.46233,35.54508 2.51861,9.86281 4.55497,12.98362 11.65652,17.86406 3.52867,2.42502 13.97926,9.85002 23.22355,16.5 21.11067,15.18619 44.06583,31.61475 59.37127,42.49088 6.50152,4.62002 13.39594,9.58707 15.32094,11.03789 1.925,1.45082 6.01075,4.28142 9.07945,6.29022 3.0687,2.00881 8.3562,6.62072 11.75,10.24871 L 353,299.07317 v 42.46342 c 0,39.81685 -0.10907,42.45651 -1.75,42.35271 -0.9625,-0.0609 -8.725,-0.96864 -17.25,-2.01724 z m 38,-40.24758 v -42.55131 l 5.97164,-6.3837 c 3.2844,-3.51103 8.5719,-8.15569 11.75,-10.32146 10.75857,-7.33161 50.04534,-35.34785 72.77836,-51.89982 8.8,-6.4073 21.625,-15.55703 28.5,-20.33274 10.38003,-7.21047 12.87176,-9.44226 14.69202,-13.15928 5.73359,-11.70819 5.66385,-27.2014 -0.24206,-53.76943 -0.45291,-2.03744 0.35809,-2.68934 7.27013,-5.8438 15.22627,-6.94885 45.70486,-17.88272 68.27991,-24.49467 27.93373,-8.18146 65,-15.627602 65,-13.057682 0,0.455432 -20.3625,13.049032 -45.25,27.985772 -48.04989,28.83812 -56.75,34.24767 -56.75,35.28596 0,0.35757 1.95317,2.17283 4.34038,4.03391 2.38721,1.86107 7.83539,6.64869 12.10706,10.63914 9.32932,8.71514 9.33103,8.44913 -0.13468,20.93454 -15.09827,19.91483 -18.11203,23.08544 -23.65658,24.88774 -2.8359,0.92184 -17.98118,7.9559 -33.65618,15.63125 -15.675,7.67535 -30.525,14.93076 -33,16.12314 -4.87869,2.3504 -15.06987,12.14607 -21.03808,20.22159 -6.84486,9.26172 -13.0697,23.84492 -11.35943,26.61221 0.42591,0.68913 1.2706,0.007 2.19662,-1.77307 2.55557,-4.91335 19.4315,-26.63471 24.5216,-31.56225 5.38221,-5.21033 11.78761,-7.83948 50.67929,-20.80167 21.23806,-7.07843 26.30098,-8.51589 51.5,-14.6218 l 15,-3.63462 11,7.71866 c 11.68401,8.19862 27.54309,17.89341 36.30667,22.19456 4.34393,2.13199 5.76943,3.51772 7.85743,7.63818 2.64221,5.21415 4.60209,10.16222 6.88233,17.37566 l 1.32751,4.19949 -10.18697,3.21805 C 624.19412,295.43171 587.31947,310.66391 567,320.07722 l -11.5,5.32755 -19,1.28276 c -10.45,0.70552 -33.43584,1.68825 -51.07965,2.18384 -25.83963,0.72581 -32.66798,1.20532 -35.10423,2.46516 -5.58454,2.88787 -18.64756,18.73732 -32.27833,39.16347 -2.93621,4.4 -5.45163,8.14325 -5.58983,8.31832 -0.25251,0.31989 -5.85581,1.07045 -23.44796,3.14084 -5.225,0.61492 -11.1875,1.36523 -13.25,1.66734 L 372,384.1758 Z M 342.5,271.7321 c -40.26699,-27.65978 -52.93675,-36.553 -73.5,-51.59144 -12.925,-9.4524 -25.525,-18.64387 -28,-20.4255 -3.3788,-2.43222 -5.49663,-5.1991 -8.5,-11.10497 l -4,-7.86566 0.0738,-16.62226 c 0.0974,-21.93882 0.4224,-23.5 5.19253,-24.94015 29.85266,-9.01282 78.29645,-16.17193 109.48371,-16.17969 L 353,123 v 77.5 c 0,42.625 -0.3375,77.48071 -0.75,77.45714 -0.4125,-0.0236 -4.8,-2.82484 -9.75,-6.22504 z M 372,200.5 V 123 h 10.35478 c 27.10112,0 68.06587,5.53616 98.64522,13.33137 5.225,1.33194 10.68873,2.89759 12.14162,3.47921 l 2.64163,1.05751 0.69442,15.31595 c 1.24528,27.46584 -2.25182,37.21979 -16.86193,47.03052 -3.36366,2.25871 -15.02572,10.67195 -25.91569,18.69609 C 427.89441,240.92522 374.21603,278 372.49159,278 372.22122,278 372,243.125 372,200.5 Z M 86.64837,250.61898 C 65.523757,226.40264 52.242851,199.65052 44.391645,165.5 42.088941,155.48389 41.621863,151.1028 41.566422,139 c -0.06255,-13.65414 0.08657,-14.82084 2.5562,-20 4.28289,-8.98181 12.869338,-15.99046 17.976659,-14.67337 1.320395,0.34051 5.775719,3.07151 9.900719,6.06888 4.125,2.99738 10.425,7.49321 14,9.99075 3.575,2.49753 12.575,9.07491 20,14.6164 13.06099,9.74779 41.9774,30.40646 45.55731,32.54739 1.58582,0.94838 1.26656,1.72296 -3.2974,8 -6.45768,8.88155 -10.25874,16.04685 -10.26424,19.34889 -0.002,1.43058 -1.80238,6.15391 -4,10.49628 -2.19762,4.34236 -3.99567,8.89861 -3.99567,10.125 0,6.89992 -1.09898,8.44807 -14.88789,20.97278 C 102.93861,247.55041 92.811005,256 91.731185,256 c -0.213838,0 -2.501105,-2.42146 -5.082815,-5.38102 z m 541.54727,1.52698 c -7.30534,-5.45051 -30.1313,-26.15721 -31.35515,-28.44402 -0.56191,-1.04993 -1.40031,-4.58784 -1.86311,-7.862 -0.53035,-3.752 -1.93796,-7.68836 -3.80712,-10.64649 -1.63111,-2.5814 -3.47888,-7.15824 -4.10615,-10.17077 -1.26848,-6.09196 -4.26676,-11.74257 -10.69187,-20.15014 -5.06377,-6.62617 -6.216,-4.8732 11.12776,-16.92938 6.6,-4.58786 18.975,-13.51841 27.5,-19.84567 C 644.39263,116.28227 662.19673,104 664.42692,104 c 3.25261,0 10.93642,5.43837 13.79129,9.76107 5.63761,8.53615 7.34396,20.02565 5.2587,35.40877 -5.13441,37.8769 -19.40397,70.85298 -42.65806,98.58016 -3.80549,4.5375 -7.04025,8.25 -7.18836,8.25 -0.1481,0 -2.59379,-1.73432 -5.43485,-3.85404 z M 151.5972,219.69732 c -12.0387,-4.65716 -12.41482,-5.06157 -12.52691,-13.46876 -0.0546,-4.09128 0.51673,-6.15848 2.55174,-9.2336 1.44212,-2.17918 2.97668,-3.74297 3.41015,-3.47507 0.43346,0.26789 2.44635,3.52301 4.47309,7.23359 2.02674,3.71059 6.03145,9.89652 8.89936,13.74652 6.70011,8.99448 6.99419,9.50911 5.40439,9.45754 -0.71996,-0.0234 -6.21528,-1.94046 -12.21182,-4.26022 z M 563.5899,218.75 c 2.06814,-2.8875 4.50667,-6.15 5.41898,-7.25 0.9123,-1.1 3.80128,-5.7125 6.41996,-10.25 2.61868,-4.5375 4.88227,-8.25 5.0302,-8.25 0.14793,0 1.45516,1.71169 2.90496,3.80375 2.13308,3.07804 2.636,4.94946 2.636,9.80887 0,3.30282 -0.5625,6.73905 -1.25,7.63608 -1.14317,1.49157 -21.34046,9.7513 -23.84459,9.7513 -0.59166,0 0.61636,-2.3625 2.68449,-5.25 z"
       id="path1" />
  </g>
</svg>



